<svg xmlns="http://www.w3.org/2000/svg" width="1000" height="420" viewBox="0 0 1000 420">
<rect width="100%" height="100%" fill="white"/>
<text x="500.0" y="24" text-anchor="middle" font-size="18" font-family="Arial">15년 시뮬레이션 (기준가=100)</text>
<line x1="50" y1="370" x2="950" y2="370" stroke="#444"/>
<line x1="50" y1="50" x2="50" y2="370" stroke="#444"/>
<line x1="50" y1="370.0" x2="950" y2="370.0" stroke="#eee"/>
<text x="42" y="374.0" text-anchor="end" font-size="10" font-family="Arial">89</text>
<line x1="50" y1="306.0" x2="950" y2="306.0" stroke="#eee"/>
<text x="42" y="310.0" text-anchor="end" font-size="10" font-family="Arial">195</text>
<line x1="50" y1="242.0" x2="950" y2="242.0" stroke="#eee"/>
<text x="42" y="246.0" text-anchor="end" font-size="10" font-family="Arial">301</text>
<line x1="50" y1="178.0" x2="950" y2="178.0" stroke="#eee"/>
<text x="42" y="182.0" text-anchor="end" font-size="10" font-family="Arial">408</text>
<line x1="50" y1="114.0" x2="950" y2="114.0" stroke="#eee"/>
<text x="42" y="118.0" text-anchor="end" font-size="10" font-family="Arial">514</text>
<line x1="50" y1="50.0" x2="950" y2="50.0" stroke="#eee"/>
<text x="42" y="54.0" text-anchor="end" font-size="10" font-family="Arial">620</text>
<polyline fill="none" stroke="#4e79a7" stroke-width="2" points="50.0,363.1 55.0,363.2 60.1,363.2 65.1,361.0 70.1,361.0 75.1,364.6 80.2,363.4 85.2,363.8 90.2,364.0 95.3,363.4 100.3,362.4 105.3,359.0 110.3,356.8 115.4,356.1 120.4,357.8 125.4,360.3 130.4,359.3 135.5,355.3 140.5,354.8 145.5,354.7 150.6,352.7 155.6,356.7 160.6,357.2 165.6,355.5 170.7,352.5 175.7,352.8 180.7,351.3 185.8,350.1 190.8,347.2 195.8,350.4 200.8,348.2 205.9,352.6 210.9,360.2 215.9,361.5 220.9,363.6 226.0,361.0 231.0,358.9 236.0,361.9 241.1,359.3 246.1,361.7 251.1,361.5 256.1,362.0 261.2,361.3 266.2,358.8 271.2,356.6 276.3,355.2 281.3,352.9 286.3,351.0 291.3,352.6 296.4,354.3 301.4,355.3 306.4,353.5 311.5,353.8 316.5,346.4 321.5,348.7 326.5,351.8 331.6,349.0 336.6,344.0 341.6,341.8 346.6,338.4 351.7,332.6 356.7,332.5 361.7,337.5 366.8,339.0 371.8,335.0 376.8,340.0 381.8,339.4 386.9,338.0 391.9,338.7 396.9,335.5 402.0,332.8 407.0,323.2 412.0,319.9 417.0,322.1 422.1,323.9 427.1,326.9 432.1,322.4 437.2,324.3 442.2,324.0 447.2,320.2 452.2,322.8 457.3,323.5 462.3,330.9 467.3,334.7 472.3,336.3 477.4,334.3 482.4,329.2 487.4,328.7 492.5,327.1 497.5,325.8 502.5,320.7 507.5,316.1 512.6,314.2 517.6,318.3 522.6,313.6 527.7,311.2 532.7,304.6 537.7,304.0 542.7,293.2 547.8,294.5 552.8,284.9 557.8,283.4 562.8,285.7 567.9,291.6 572.9,291.7 577.9,282.8 583.0,277.0 588.0,271.8 593.0,286.5 598.0,281.5 603.1,277.3 608.1,279.9 613.1,282.9 618.2,282.1 623.2,270.8 628.2,276.9 633.2,278.7 638.3,269.3 643.3,271.4 648.3,272.9 653.4,271.4 658.4,278.7 663.4,276.5 668.4,283.3 673.5,277.1 678.5,276.3 683.5,260.9 688.5,257.9 693.6,247.2 698.6,256.1 703.6,256.0 708.7,252.7 713.7,238.8 718.7,251.2 723.7,242.8 728.8,237.1 733.8,223.6 738.8,216.3 743.9,214.6 748.9,218.1 753.9,228.0 758.9,225.2 764.0,225.7 769.0,207.3 774.0,211.8 779.1,207.6 784.1,221.0 789.1,223.3 794.1,219.8 799.2,211.4 804.2,196.9 809.2,196.0 814.2,205.7 819.3,200.1 824.3,193.8 829.3,187.5 834.4,193.3 839.4,180.7 844.4,178.4 849.4,169.5 854.5,154.0 859.5,145.3 864.5,140.3 869.6,112.2 874.6,107.1 879.6,109.4 884.6,106.0 889.7,83.8 894.7,80.1 899.7,70.3 904.7,50.0 909.8,56.1 914.8,81.4 919.8,75.0 924.9,69.5 929.9,76.7 934.9,61.7 939.9,50.0 945.0,63.9 950.0,53.8"/>
<polyline fill="none" stroke="#e15759" stroke-width="2" points="50.0,363.4 55.0,368.7 60.1,366.7 65.1,366.5 70.1,368.8 75.1,366.7 80.2,364.5 85.2,366.3 90.2,364.5 95.3,360.3 100.3,362.7 105.3,360.8 110.3,360.4 115.4,350.9 120.4,359.0 125.4,355.8 130.4,356.6 135.5,356.6 140.5,348.1 145.5,347.6 150.6,336.4 155.6,338.2 160.6,335.8 165.6,337.9 170.7,341.1 175.7,340.2 180.7,341.2 185.8,339.6 190.8,350.2 195.8,340.4 200.8,340.7 205.9,331.0 210.9,336.3 215.9,334.1 220.9,315.6 226.0,320.9 231.0,329.9 236.0,332.5 241.1,329.2 246.1,324.4 251.1,315.7 256.1,316.7 261.2,326.8 266.2,328.8 271.2,320.8 276.3,317.1 281.3,329.6 286.3,329.1 291.3,320.2 296.4,305.5 301.4,300.6 306.4,297.3 311.5,306.4 316.5,311.9 321.5,310.8 326.5,306.5 331.6,301.4 336.6,304.3 341.6,312.2 346.6,316.9 351.7,324.0 356.7,319.3 361.7,333.9 366.8,335.2 371.8,332.1 376.8,322.7 381.8,321.5 386.9,314.4 391.9,316.4 396.9,320.8 402.0,324.5 407.0,314.2 412.0,306.6 417.0,302.2 422.1,275.8 427.1,275.1 432.1,268.3 437.2,264.3 442.2,265.4 447.2,241.2 452.2,222.5 457.3,239.0 462.3,242.5 467.3,236.4 472.3,225.8 477.4,241.4 482.4,266.3 487.4,284.2 492.5,283.9 497.5,283.9 502.5,279.9 507.5,286.0 512.6,295.7 517.6,311.3 522.6,308.2 527.7,304.7 532.7,296.4 537.7,289.2 542.7,290.0 547.8,277.6 552.8,277.9 557.8,283.1 562.8,286.8 567.9,290.9 572.9,308.2 577.9,306.3 583.0,303.7 588.0,305.7 593.0,310.2 598.0,306.8 603.1,293.3 608.1,292.1 613.1,295.5 618.2,299.4 623.2,299.1 628.2,308.3 633.2,308.4 638.3,307.2 643.3,292.9 648.3,284.2 653.4,274.1 658.4,279.9 663.4,272.8 668.4,282.7 673.5,279.0 678.5,274.2 683.5,280.4 688.5,261.3 693.6,254.4 698.6,273.7 703.6,267.5 708.7,270.4 713.7,269.4 718.7,263.8 723.7,258.8 728.8,279.0 733.8,288.7 738.8,281.2 743.9,268.5 748.9,248.7 753.9,227.6 758.9,251.8 764.0,242.3 769.0,263.1 774.0,245.6 779.1,241.6 784.1,253.6 789.1,230.8 794.1,221.6 799.2,244.5 804.2,240.0 809.2,247.3 814.2,244.8 819.3,248.9 824.3,232.5 829.3,248.5 834.4,243.8 839.4,222.0 844.4,231.2 849.4,227.3 854.5,223.5 859.5,230.9 864.5,221.7 869.6,219.1 874.6,230.0 879.6,207.1 884.6,194.8 889.7,195.7 894.7,203.4 899.7,212.9 904.7,195.0 909.8,195.6 914.8,187.5 919.8,188.7 924.9,177.9 929.9,178.1 934.9,164.5 939.9,165.8 945.0,150.6 950.0,137.1"/>
<polyline fill="none" stroke="#59a14f" stroke-width="2" points="50.0,363.0 55.0,364.8 60.1,366.7 65.1,368.1 70.1,370.0 75.1,367.8 80.2,367.7 85.2,363.8 90.2,358.0 95.3,357.6 100.3,361.4 105.3,362.0 110.3,361.8 115.4,365.2 120.4,365.5 125.4,364.5 130.4,365.3 135.5,366.7 140.5,368.2 145.5,363.9 150.6,364.0 155.6,365.6 160.6,366.2 165.6,363.7 170.7,365.0 175.7,363.5 180.7,361.5 185.8,359.3 190.8,355.3 195.8,356.4 200.8,353.0 205.9,354.9 210.9,355.6 215.9,352.0 220.9,349.2 226.0,348.8 231.0,352.0 236.0,350.0 241.1,351.5 246.1,353.7 251.1,355.2 256.1,354.1 261.2,359.7 266.2,358.4 271.2,357.6 276.3,358.8 281.3,355.8 286.3,353.7 291.3,355.1 296.4,356.5 301.4,354.3 306.4,358.2 311.5,358.7 316.5,360.0 321.5,359.5 326.5,358.6 331.6,358.1 336.6,354.8 341.6,353.8 346.6,354.3 351.7,357.3 356.7,355.0 361.7,353.2 366.8,348.7 371.8,350.5 376.8,350.1 381.8,349.8 386.9,349.7 391.9,349.3 396.9,354.0 402.0,351.3 407.0,349.0 412.0,345.2 417.0,337.7 422.1,338.3 427.1,338.0 432.1,337.5 437.2,330.3 442.2,336.3 447.2,334.1 452.2,339.0 457.3,347.3 462.3,353.1 467.3,356.6 472.3,353.4 477.4,355.5 482.4,355.7 487.4,358.5 492.5,356.6 497.5,359.2 502.5,355.4 507.5,357.8 512.6,359.5 517.6,358.8 522.6,358.4 527.7,354.3 532.7,353.6 537.7,356.6 542.7,357.8 547.8,358.9 552.8,356.7 557.8,355.3 562.8,355.2 567.9,352.5 572.9,353.6 577.9,353.6 583.0,352.7 588.0,348.0 593.0,347.9 598.0,348.6 603.1,351.3 608.1,348.9 613.1,350.3 618.2,348.9 623.2,354.2 628.2,350.9 633.2,354.4 638.3,356.2 643.3,353.0 648.3,356.4 653.4,356.2 658.4,355.7 663.4,358.0 668.4,354.1 673.5,349.6 678.5,355.0 683.5,358.7 688.5,356.2 693.6,359.4 698.6,360.0 703.6,359.4 708.7,357.2 713.7,357.5 718.7,356.9 723.7,358.6 728.8,354.9 733.8,355.8 738.8,354.6 743.9,355.6 748.9,355.0 753.9,355.0 758.9,355.1 764.0,357.5 769.0,355.1 774.0,350.8 779.1,349.7 784.1,347.1 789.1,344.1 794.1,340.7 799.2,339.3 804.2,338.1 809.2,334.7 814.2,333.9 819.3,337.0 824.3,336.4 829.3,342.6 834.4,342.2 839.4,340.4 844.4,335.8 849.4,334.8 854.5,331.0 859.5,330.5 864.5,333.8 869.6,338.4 874.6,341.3 879.6,345.4 884.6,343.0 889.7,343.2 894.7,340.9 899.7,340.2 904.7,336.3 909.8,332.1 914.8,334.0 919.8,334.5 924.9,335.9 929.9,341.1 934.9,338.5 939.9,333.9 945.0,333.5 950.0,334.8"/>
<polyline fill="none" stroke="#9c755f" stroke-width="2" points="50.0,360.3 55.0,365.5 60.1,364.8 65.1,364.1 70.1,365.0 75.1,361.7 80.2,359.1 85.2,359.3 90.2,359.2 95.3,359.8 100.3,360.6 105.3,363.3 110.3,359.9 115.4,357.1 120.4,354.7 125.4,357.2 130.4,351.6 135.5,345.9 140.5,344.9 145.5,347.1 150.6,349.2 155.6,347.6 160.6,349.8 165.6,349.4 170.7,346.0 175.7,349.9 180.7,344.0 185.8,338.9 190.8,342.3 195.8,346.2 200.8,346.5 205.9,349.1 210.9,349.4 215.9,356.1 220.9,356.3 226.0,351.4 231.0,354.0 236.0,354.3 241.1,357.8 246.1,355.9 251.1,356.0 256.1,350.8 261.2,349.8 266.2,350.4 271.2,348.5 276.3,349.5 281.3,352.8 286.3,351.6 291.3,351.6 296.4,350.8 301.4,349.4 306.4,350.4 311.5,348.8 316.5,343.5 321.5,346.4 326.5,340.9 331.6,341.2 336.6,343.1 341.6,335.3 346.6,334.3 351.7,329.3 356.7,325.8 361.7,331.4 366.8,330.5 371.8,331.8 376.8,335.9 381.8,341.2 386.9,340.4 391.9,338.1 396.9,336.4 402.0,336.9 407.0,339.0 412.0,341.6 417.0,342.9 422.1,345.5 427.1,345.7 432.1,345.3 437.2,347.5 442.2,347.7 447.2,349.4 452.2,349.0 457.3,347.2 462.3,346.3 467.3,344.5 472.3,348.9 477.4,349.5 482.4,348.4 487.4,346.1 492.5,350.3 497.5,349.5 502.5,345.7 507.5,345.8 512.6,345.6 517.6,343.9 522.6,342.7 527.7,340.2 532.7,339.5 537.7,338.5 542.7,340.5 547.8,340.6 552.8,336.3 557.8,336.4 562.8,336.5 567.9,337.6 572.9,334.6 577.9,336.9 583.0,333.5 588.0,336.1 593.0,339.1 598.0,338.0 603.1,337.1 608.1,335.6 613.1,331.6 618.2,332.5 623.2,330.5 628.2,333.1 633.2,328.4 638.3,325.6 643.3,323.1 648.3,321.8 653.4,324.2 658.4,324.9 663.4,322.4 668.4,321.9 673.5,320.9 678.5,325.5 683.5,324.3 688.5,326.3 693.6,329.7 698.6,329.7 703.6,335.7 708.7,332.9 713.7,329.5 718.7,329.2 723.7,332.2 728.8,334.9 733.8,334.9 738.8,342.4 743.9,341.4 748.9,338.9 753.9,339.4 758.9,340.5 764.0,339.5 769.0,337.9 774.0,333.9 779.1,333.3 784.1,335.2 789.1,336.2 794.1,335.1 799.2,329.4 804.2,330.0 809.2,333.2 814.2,335.6 819.3,342.0 824.3,340.6 829.3,344.3 834.4,347.5 839.4,352.7 844.4,355.3 849.4,353.4 854.5,356.5 859.5,360.5 864.5,359.7 869.6,360.2 874.6,358.8 879.6,356.6 884.6,356.3 889.7,359.1 894.7,359.1 899.7,357.5 904.7,358.6 909.8,361.7 914.8,358.8 919.8,359.4 924.9,360.1 929.9,359.7 934.9,356.8 939.9,355.8 945.0,356.3 950.0,354.2"/>
<line x1="720" y1="40" x2="745" y2="40" stroke="#4e79a7" stroke-width="3"/>
<text x="752" y="44" font-size="12" font-family="Arial">S&P500</text>
<line x1="720" y1="60" x2="745" y2="60" stroke="#e15759" stroke-width="3"/>
<text x="752" y="64" font-size="12" font-family="Arial">NASDAQ100</text>
<line x1="720" y1="80" x2="745" y2="80" stroke="#59a14f" stroke-width="3"/>
<text x="752" y="84" font-size="12" font-family="Arial">MSCI선진국</text>
<line x1="720" y1="100" x2="745" y2="100" stroke="#9c755f" stroke-width="3"/>
<text x="752" y="104" font-size="12" font-family="Arial">TIGER글로벌토탈</text>
</svg>